<svg xmlns="http://www.w3.org/2000/svg" xmlns:xlink="http://www.w3.org/1999/xlink" width="500" zoomAndPan="magnify" viewBox="0 0 375 374.999991" height="500" preserveAspectRatio="xMidYMid meet" version="1.0"><defs><g/><clipPath id="67907dfc26"><path d="M 82.21875 112 L 292.96875 112 L 292.96875 220.722656 L 82.21875 220.722656 Z M 82.21875 112 " clip-rule="nonzero"/></clipPath></defs><g clip-path="url(#67907dfc26)"><path fill="#000000" d="M 227.769531 160.515625 C 227 164.253906 226.011719 167.886719 223.742188 171.082031 C 219.808594 176.625 214.667969 180.847656 209.125 184.628906 C 208.078125 185.34375 207.707031 186.082031 207.726562 187.308594 C 207.878906 196.773438 207.9375 206.238281 208.117188 215.703125 C 208.144531 217.089844 207.726562 217.570312 206.390625 217.859375 C 191.355469 221.117188 176.324219 220.664062 161.273438 217.976562 C 159.988281 217.746094 159.679688 217.257812 159.679688 216.015625 C 159.667969 205.753906 159.585938 195.488281 159.503906 185.222656 C 159.5 184.679688 159.390625 184.050781 159.105469 183.605469 C 155.449219 177.933594 153.601562 171.683594 153.054688 165.011719 C 152.878906 162.910156 152.804688 160.800781 152.679688 158.550781 C 149.683594 159.058594 146.78125 159.550781 143.769531 160.0625 C 143.839844 160.65625 143.890625 161.128906 143.957031 161.601562 C 144.960938 169.128906 145.359375 176.664062 144.0625 184.203125 C 143.328125 188.464844 142.132812 192.585938 139.4375 196.070312 C 136.628906 199.699219 133.023438 201.652344 128.320312 200.503906 C 126.765625 200.121094 125.320312 199.289062 123.730469 198.621094 C 121.265625 201.023438 118.28125 201.613281 115.042969 200.175781 C 113.691406 199.578125 112.472656 198.632812 111.277344 197.738281 C 110.410156 197.089844 109.683594 196.257812 108.914062 195.523438 C 106.128906 197.285156 104.21875 197.300781 101.609375 195.425781 C 100.507812 194.632812 99.492188 193.667969 98.605469 192.640625 C 95.824219 189.429688 93.882812 185.703125 92.277344 181.800781 C 91.15625 179.078125 90.1875 176.292969 89.152344 173.542969 C 86.542969 173.929688 85.835938 173.601562 84.578125 171.234375 C 83.160156 168.570312 82.507812 165.6875 82.445312 162.691406 C 82.394531 160.167969 82.363281 157.546875 85.808594 157.199219 C 85.640625 154.945312 85.421875 152.832031 85.347656 150.714844 C 85.277344 148.546875 85.265625 146.375 85.375 144.210938 C 85.554688 140.714844 86.042969 137.261719 87.421875 133.996094 C 88.425781 131.621094 90.164062 129.914062 92.707031 129.679688 C 94.753906 129.492188 95.378906 128.46875 96.050781 126.785156 C 98.15625 121.507812 101.09375 119.667969 106.300781 120.042969 C 106.683594 119.429688 107.066406 118.785156 107.480469 118.164062 C 111.117188 112.667969 116.523438 111.429688 122.191406 114.816406 C 125.6875 116.902344 128.285156 119.917969 130.566406 123.210938 C 135.101562 129.75 138.058594 137.019531 140.332031 144.59375 C 140.53125 145.25 140.757812 145.898438 140.953125 146.5 C 145.175781 145.816406 149.238281 145.183594 153.289062 144.460938 C 153.628906 144.398438 154.046875 143.785156 154.121094 143.375 C 154.800781 139.597656 155.375 135.800781 156.046875 132.023438 C 156.675781 128.484375 158.226562 125.46875 161.433594 123.582031 C 164.285156 121.902344 167.246094 121.679688 170.199219 123.339844 C 172.683594 119.3125 179.371094 117.050781 184.75 120.324219 C 189.71875 115.351562 196.535156 115.265625 202.734375 120.027344 C 203.957031 119.59375 205.078125 118.988281 206.265625 118.808594 C 211.253906 118.054688 215.210938 119.820312 218.054688 123.992188 C 219.824219 126.59375 220.78125 129.515625 221.476562 132.558594 C 221.65625 133.34375 222.128906 134.316406 222.769531 134.691406 C 226.941406 137.140625 229.445312 140.457031 228.8125 145.597656 C 230.625 145.9375 232.304688 146.257812 234.039062 146.585938 C 234.199219 146.082031 234.335938 145.667969 234.457031 145.25 C 236.515625 138.316406 239.113281 131.613281 242.957031 125.445312 C 245.382812 121.550781 248.160156 117.957031 251.992188 115.316406 C 257.929688 111.230469 263.832031 112.425781 267.726562 118.472656 C 268.078125 119.023438 268.421875 119.574219 268.757812 120.097656 C 272.742188 119.371094 275.597656 120.976562 277.609375 124.175781 C 278.445312 125.507812 279.011719 127.019531 279.617188 128.484375 C 279.863281 129.085938 280.109375 129.375 280.816406 129.414062 C 284.324219 129.597656 286.679688 131.375 287.859375 134.695312 C 289.914062 140.5 289.890625 146.5 289.5625 152.527344 C 289.480469 154.066406 289.300781 155.601562 289.167969 157.113281 C 292.011719 158.148438 292.5625 158.898438 292.578125 161.992188 C 292.59375 164.992188 291.992188 167.882812 290.734375 170.613281 C 289.453125 173.390625 288.773438 173.777344 285.742188 173.601562 C 285.628906 173.914062 285.527344 174.246094 285.398438 174.570312 C 284.078125 177.941406 282.894531 181.375 281.398438 184.667969 C 279.691406 188.425781 277.554688 191.957031 274.367188 194.699219 C 271.453125 197.210938 269.355469 197.40625 266.066406 195.582031 C 258.851562 201.941406 256.773438 202.351562 251.019531 198.546875 C 250.644531 198.773438 250.269531 199.007812 249.882812 199.222656 C 244.972656 201.96875 239.996094 201.285156 236.382812 196.964844 C 234.773438 195.039062 233.492188 192.703125 232.597656 190.347656 C 229.941406 183.335938 229.867188 175.984375 230.335938 168.617188 C 230.511719 165.800781 230.878906 163 231.167969 160.070312 C 230.125 159.886719 229.097656 159.710938 227.949219 159.511719 C 227.863281 160.003906 227.824219 160.261719 227.769531 160.515625 Z M 171.675781 143.511719 C 171.351562 142.742188 171.113281 141.9375 170.851562 141.144531 C 170.523438 140.136719 169.914062 139.8125 168.898438 140.328125 C 169.441406 142.121094 169.960938 143.914062 170.539062 145.6875 C 170.652344 146.039062 170.992188 146.320312 171.226562 146.632812 C 170.128906 146.519531 168.929688 146.644531 167.953125 146.238281 C 165.765625 145.320312 164.574219 143.335938 163.445312 141.359375 C 163.164062 140.863281 162.863281 140.378906 162.445312 139.96875 C 163.632812 142.777344 164.710938 145.691406 167.480469 147.425781 C 168.980469 148.367188 170.617188 148.195312 172.179688 147.441406 C 173.230469 146.9375 173.667969 146.046875 173.421875 144.921875 C 172.300781 139.789062 171.148438 134.660156 170 129.53125 C 169.914062 129.144531 169.75 128.773438 169.613281 128.402344 C 168.359375 125.050781 166.308594 124.273438 163.167969 125.960938 C 161.414062 126.902344 160.078125 128.632812 159.628906 130.351562 C 160.457031 129.609375 161.34375 128.484375 162.5 127.878906 C 163.632812 127.285156 165.042969 127.21875 166.328125 126.921875 C 166.367188 127.054688 166.40625 127.191406 166.441406 127.324219 C 165.738281 127.632812 165.011719 127.902344 164.332031 128.261719 C 163.679688 128.601562 163.078125 129.03125 162.550781 129.664062 C 163.363281 129.519531 164.179688 129.371094 164.996094 129.226562 C 163.367188 130.519531 163.785156 131.957031 164.574219 133.40625 C 165.289062 134.722656 166.015625 136.039062 166.828125 137.304688 C 167.128906 137.78125 167.675781 138.101562 168.152344 138.53125 C 167.738281 139.066406 166.324219 139.308594 167.011719 140.753906 C 167.8125 139.265625 168.832031 138.65625 170.085938 138.871094 C 170.34375 138.914062 170.609375 138.984375 170.839844 139.101562 C 172.386719 139.898438 173.285156 144.992188 172.078125 146.21875 C 171.855469 146.445312 171.484375 146.527344 171.179688 146.671875 C 172.042969 145.730469 172.164062 144.6875 171.675781 143.511719 Z M 219.210938 148.351562 C 218.179688 149.257812 217.078125 149.464844 215.953125 149.285156 C 214.96875 149.125 214.414062 149.527344 214.074219 150.324219 C 213.554688 151.542969 213.0625 152.773438 212.636719 154.023438 C 212.105469 155.589844 212.648438 156.984375 213.496094 158.285156 C 213.957031 158.984375 214.460938 159.65625 215.125 160.597656 C 212.253906 159.460938 210.664062 157.507812 209.722656 154.917969 C 209.597656 154.945312 209.46875 154.96875 209.34375 154.992188 C 209.492188 156.6875 209.644531 158.378906 209.796875 160.105469 C 208.628906 158.855469 208.347656 157.273438 208.308594 155.597656 C 208.191406 155.574219 208.074219 155.550781 207.960938 155.527344 C 207.648438 156.523438 207.335938 157.519531 206.933594 158.796875 C 206.710938 157.945312 206.539062 157.28125 206.417969 156.808594 C 204.652344 156.910156 202.863281 157.011719 200.832031 157.125 C 196.246094 163.84375 192.988281 165.226562 187.667969 162.398438 C 184.820312 164.367188 183.480469 167.34375 182.414062 170.515625 C 182.199219 167.1875 183.371094 164.316406 185.164062 161.890625 C 183.429688 161.890625 181.65625 161.949219 179.890625 161.875 C 177.910156 161.785156 176.335938 160.796875 175.167969 159.257812 C 174.589844 158.5 174.035156 158.289062 173.160156 158.617188 C 169.023438 160.15625 164.875 161.660156 160.75 163.230469 C 160.433594 163.351562 160.015625 163.992188 160.097656 164.25 C 161.992188 170.164062 164.664062 175.601562 170.148438 179.0625 C 173.824219 181.386719 177.957031 182.074219 182.238281 181.839844 C 183.191406 181.785156 183.816406 182.007812 184.421875 182.695312 C 184.90625 183.246094 185.53125 183.671875 186.21875 184.066406 C 184.515625 182.1875 183.300781 180.121094 183.160156 177.410156 C 186.050781 181.511719 190.226562 181.929688 194.492188 181.5625 C 202.722656 180.851562 209.742188 177.253906 216.300781 172.351562 C 222.164062 167.96875 224.804688 162.125 225.363281 155.117188 C 225.667969 151.289062 225.742188 147.4375 225.910156 143.597656 C 225.925781 143.214844 225.855469 142.828125 225.804688 142.183594 C 225.386719 142.722656 225.117188 143.070312 224.851562 143.417969 C 225.976562 140.40625 224.070312 139.050781 221.929688 137.742188 C 221.03125 137.191406 220.257812 136.441406 219.4375 135.769531 C 218.339844 134.867188 217.195312 134.074219 215.613281 133.960938 C 215.515625 134.589844 215.460938 135.148438 215.34375 135.695312 C 214.851562 137.925781 213.167969 139.066406 211.027344 138.378906 C 209.664062 137.941406 208.304688 137.277344 207.152344 136.429688 C 204.949219 134.8125 204.464844 132.417969 205.628906 129.9375 C 205.996094 129.148438 206.492188 128.421875 206.929688 127.664062 C 205.476562 127.191406 204.414062 127.785156 203.816406 129.421875 C 203.070312 131.480469 203.3125 133.542969 203.996094 135.539062 C 205.757812 140.691406 209.4375 144.042969 214.378906 146.035156 C 216.542969 146.90625 218.820312 146.472656 221.070312 145.902344 C 220.25 147.085938 219.390625 147.515625 216.710938 148.347656 C 217.484375 148.351562 218.257812 148.351562 219.210938 148.351562 Z M 113.195312 196.960938 C 117.097656 200.078125 120.132812 199.800781 123.578125 196.050781 C 124.164062 196.4375 124.769531 196.851562 125.386719 197.242188 C 129.820312 200.050781 134.058594 199.472656 137.074219 195.648438 C 137.203125 195.484375 137.300781 195.296875 137.535156 194.9375 C 133.863281 195.945312 131.394531 194.132812 129.171875 191.855469 C 125.429688 188.023438 122.988281 183.351562 120.96875 178.476562 C 115.3125 164.816406 112.480469 150.601562 112.996094 135.789062 C 113.125 132.066406 113.570312 128.359375 114.914062 124.859375 C 115.523438 123.277344 116.367188 121.710938 117.410156 120.378906 C 118.972656 118.375 121.109375 117.945312 123.5 118.78125 C 123.777344 118.875 124.054688 118.957031 124.378906 118.933594 C 121.683594 116.402344 118.773438 114.175781 114.792969 114.914062 C 110.78125 115.652344 108.960938 118.902344 107.285156 122.230469 C 107.09375 122.21875 106.910156 122.253906 106.757812 122.191406 C 103.492188 120.882812 100.4375 122.414062 98.800781 125.378906 C 97.804688 127.1875 97.109375 129.15625 96.210938 131.210938 C 95.863281 131.210938 95.300781 131.207031 94.738281 131.210938 C 91.78125 131.234375 89.726562 132.484375 88.910156 135.304688 C 88.132812 138.003906 87.429688 140.808594 87.296875 143.597656 C 86.613281 158.136719 89.441406 172.015625 95.847656 185.097656 C 97.058594 187.570312 98.84375 189.773438 100.46875 192.023438 C 101.023438 192.792969 101.851562 193.398438 102.636719 193.957031 C 104.785156 195.488281 106.429688 195.34375 108.34375 193.542969 C 108.566406 193.335938 108.746094 193.082031 108.890625 192.914062 C 110.425781 194.367188 111.71875 195.777344 113.195312 196.960938 Z M 266.128906 193.027344 C 268.417969 195.636719 270.636719 195.757812 273.648438 192.929688 C 277.007812 189.777344 279.121094 185.769531 280.855469 181.59375 C 285.78125 169.71875 288.300781 157.359375 287.753906 144.484375 C 287.632812 141.558594 287.019531 138.605469 286.238281 135.773438 C 285.296875 132.367188 283.242188 131.132812 279.695312 131.21875 C 279.34375 131.226562 278.992188 131.21875 278.679688 131.21875 C 278.082031 129.648438 277.59375 128.085938 276.898438 126.617188 C 275.832031 124.355469 274.375 122.347656 271.714844 121.90625 C 270.460938 121.695312 269.117188 121.996094 267.65625 122.078125 C 265.890625 118.757812 263.976562 115.179688 259.394531 114.816406 C 255.628906 114.519531 252.921875 116.710938 250.09375 119.246094 C 250.503906 119.171875 250.621094 119.171875 250.71875 119.132812 C 253.921875 117.703125 256.449219 118.425781 258.402344 121.347656 C 260.007812 123.75 260.773438 126.472656 261.265625 129.269531 C 262.679688 137.292969 262.207031 145.308594 260.996094 153.300781 C 259.496094 163.222656 256.890625 172.835938 252.46875 181.890625 C 250.640625 185.640625 248.5625 189.257812 245.503906 192.15625 C 244.371094 193.230469 243.011719 194.191406 241.585938 194.792969 C 240.441406 195.277344 239.035156 195.140625 237.808594 195.269531 C 239.652344 199.65625 244.976562 200.070312 251.421875 196.054688 C 251.699219 196.359375 251.988281 196.679688 252.285156 196.996094 C 254.28125 199.152344 256.816406 199.839844 259.355469 198.394531 C 261.316406 197.277344 262.972656 195.621094 264.734375 194.167969 C 265.167969 193.808594 265.480469 193.308594 265.839844 192.882812 C 265.976562 192.949219 266.078125 192.96875 266.128906 193.027344 Z M 203.257812 214.972656 C 204.503906 214.699219 204.824219 214.1875 204.816406 212.9375 C 204.757812 204.136719 204.796875 195.332031 204.800781 186.53125 C 204.800781 186.277344 204.761719 186.023438 204.730469 185.617188 C 198.984375 187.984375 193.015625 188.453125 186.605469 188.429688 C 186.605469 192.890625 186.605469 197.277344 186.605469 201.660156 C 186.453125 201.660156 186.296875 201.660156 186.144531 201.660156 C 185.925781 197.757812 185.648438 193.855469 185.519531 189.945312 C 185.476562 188.675781 185.074219 188.207031 183.828125 188.339844 C 183.09375 188.417969 182.34375 188.355469 181.429688 188.355469 C 181.277344 195.71875 181.125 203.042969 180.972656 210.367188 C 180.910156 210.371094 180.851562 210.378906 180.789062 210.382812 C 180.421875 207.296875 180.054688 204.214844 179.691406 201.128906 C 179.222656 197.089844 178.753906 193.050781 178.300781 189.007812 C 178.21875 188.273438 178.03125 187.730469 177.128906 187.761719 C 176.785156 187.777344 176.4375 187.636719 176.085938 187.582031 C 173.265625 187.128906 173.144531 187.128906 173.105469 190.113281 C 173.011719 197.453125 173.039062 204.796875 173.015625 212.136719 C 173.015625 213.28125 173.015625 214.421875 173.015625 215.71875 C 183.285156 216.539062 193.300781 217.160156 203.257812 214.972656 Z M 191.65625 150.964844 C 191.777344 153.355469 191.890625 155.671875 192.011719 158.113281 C 191.199219 158.042969 190.601562 157.988281 190.003906 157.9375 C 189.960938 158.035156 189.914062 158.132812 189.871094 158.230469 C 190.8125 158.652344 191.75 159.074219 192.6875 159.496094 C 192.683594 159.558594 192.679688 159.621094 192.671875 159.679688 C 191.832031 159.625 190.992188 159.566406 190.152344 159.507812 C 190.097656 159.605469 190.039062 159.699219 189.980469 159.796875 C 190.726562 160.183594 191.433594 160.746094 192.226562 160.921875 C 194.597656 161.449219 197.171875 160.234375 198.273438 158.0625 C 199.289062 156.058594 199.789062 154 198.914062 151.703125 C 198.445312 150.460938 198.261719 148.996094 198.371094 147.667969 C 198.832031 142.078125 199.433594 136.5 200.015625 130.921875 C 200.183594 129.339844 200.414062 127.765625 200.707031 126.203125 C 200.882812 125.265625 201.234375 124.359375 201.554688 123.277344 C 200.105469 121.390625 198.222656 119.878906 195.519531 119.785156 C 194.019531 119.730469 192.515625 119.738281 191.015625 119.792969 C 188.972656 119.867188 187.789062 121.15625 186.925781 122.921875 C 189.0625 120.433594 191.695312 119.898438 194.71875 120.792969 C 192.8125 121.082031 190.554688 120.476562 189.761719 122.792969 C 191.015625 122.792969 192.542969 122.792969 194.207031 122.792969 C 194.007812 122.949219 193.949219 123.03125 193.875 123.046875 C 190.386719 123.898438 190.128906 123.464844 189.960938 127.65625 C 189.734375 133.300781 189.917969 138.964844 189.9375 144.621094 C 189.941406 145.410156 190.023438 146.203125 190.070312 147.085938 C 191.222656 147.1875 192.335938 147.285156 193.484375 147.390625 C 191.984375 147.996094 190.582031 148.566406 189.183594 149.132812 C 189.222656 149.167969 189.265625 149.203125 189.304688 149.238281 C 191.066406 149.085938 192.828125 148.789062 194.585938 148.824219 C 196.636719 148.863281 197.253906 149.496094 197.503906 151.503906 C 197.6875 152.945312 197.796875 154.410156 197.726562 155.855469 C 197.640625 157.625 196.699219 158.585938 194.847656 159.03125 C 196.609375 158.257812 196.71875 156.761719 196.640625 155.191406 C 196.59375 154.308594 196.550781 153.425781 196.472656 152.546875 C 196.273438 150.269531 196.015625 149.984375 193.675781 150.121094 C 192.414062 150.191406 191.164062 150.542969 189.910156 150.769531 C 189.9375 150.914062 189.964844 151.058594 189.992188 151.203125 C 190.5 151.132812 191.003906 151.058594 191.65625 150.964844 Z M 179.382812 123.332031 C 177.441406 124.132812 175.476562 124.941406 173.511719 125.753906 C 173.5625 125.972656 173.613281 126.191406 173.667969 126.410156 C 175.007812 126.410156 176.351562 126.410156 177.90625 126.410156 C 176.324219 127.085938 174.972656 127.664062 173.621094 128.238281 C 173.640625 128.351562 173.664062 128.460938 173.683594 128.570312 C 174.035156 128.605469 174.386719 128.636719 174.75 128.671875 C 175.761719 134.71875 176.773438 140.765625 177.796875 146.878906 C 178.628906 146.878906 179.367188 146.878906 180.472656 146.878906 C 178.929688 147.765625 177.542969 148.351562 176.914062 150.070312 C 180.167969 147.660156 183.011719 147.503906 184.382812 149.511719 C 186.183594 152.152344 186.046875 156.300781 183.992188 157.496094 C 185.515625 155.734375 184.632812 153.933594 184.148438 152.179688 C 183.316406 149.148438 180.789062 148.550781 178.417969 150.761719 C 178.644531 150.96875 179.007812 151.136719 179.070312 151.378906 C 179.292969 152.277344 179.390625 153.203125 179.578125 154.109375 C 179.757812 154.964844 179.996094 155.804688 180.234375 156.753906 C 179.777344 156.753906 179.410156 156.753906 179.046875 156.753906 C 179.015625 156.839844 178.984375 156.921875 178.953125 157.007812 C 179.617188 157.355469 180.277344 157.707031 180.941406 158.058594 C 180.925781 158.113281 180.914062 158.167969 180.898438 158.222656 C 180.15625 158.066406 179.410156 157.910156 178.652344 157.753906 C 178.21875 159.203125 179.316406 159.6875 180.324219 159.878906 C 182.273438 160.242188 184.136719 159.765625 185.691406 158.515625 C 186.695312 157.710938 186.910156 156.515625 186.820312 155.261719 C 186.261719 147.5 185.6875 139.738281 185.160156 131.972656 C 185.019531 129.898438 185.046875 127.816406 184.972656 125.738281 C 184.957031 125.3125 184.957031 124.792969 184.722656 124.484375 C 183.300781 122.613281 181.421875 121.546875 179.015625 121.703125 C 176.519531 121.863281 174.292969 122.605469 172.910156 124.933594 C 175 123.992188 177.113281 123.21875 179.382812 123.332031 Z M 162.234375 145.84375 C 161.925781 145.574219 161.378906 145.417969 160.964844 145.460938 C 151.230469 146.480469 141.617188 148.210938 132.066406 150.320312 C 131.046875 150.542969 130.621094 151.019531 130.523438 151.960938 C 130.25 154.546875 130.738281 156.96875 131.996094 159.246094 C 132.515625 160.191406 133.164062 160.457031 134.269531 160.242188 C 141.082031 158.90625 147.886719 157.519531 154.734375 156.410156 C 159.664062 155.613281 164.660156 155.21875 169.625 154.648438 C 170.105469 154.59375 170.589844 154.566406 171.113281 154.523438 C 171.265625 153.546875 170.835938 153.339844 170 153.414062 C 159.894531 154.289062 149.894531 155.863281 139.980469 157.976562 C 138.25 158.34375 136.511719 158.667969 134.792969 159.089844 C 133.757812 159.34375 133.054688 159.074219 132.65625 158.105469 C 132.210938 157.023438 131.8125 155.921875 131.488281 155.070312 C 132.46875 155.070312 133.292969 155.199219 134.070312 155.050781 C 141.019531 153.746094 147.945312 152.285156 154.914062 151.09375 C 158.613281 150.460938 162.386719 150.261719 166.125 149.867188 C 166.363281 149.84375 166.601562 149.820312 166.589844 149.824219 C 165.1875 148.527344 163.742188 147.152344 162.234375 145.84375 Z M 228.824219 151.863281 C 228.839844 152.164062 229.242188 152.636719 229.535156 152.703125 C 233.597656 153.574219 237.664062 154.414062 241.746094 155.1875 C 242.246094 155.28125 242.832031 154.9375 243.46875 154.773438 C 243.335938 155.347656 243.238281 155.992188 243.039062 156.609375 C 242.238281 159.097656 241.742188 159.378906 239.234375 158.859375 C 235.988281 158.183594 232.75 157.492188 229.496094 156.855469 C 229.054688 156.769531 228.554688 156.972656 228.085938 157.042969 C 228.09375 157.222656 228.105469 157.402344 228.117188 157.582031 C 230.003906 157.972656 231.886719 158.367188 233.773438 158.757812 C 236.238281 159.269531 238.699219 159.820312 241.179688 160.253906 C 241.625 160.332031 242.359375 160.082031 242.605469 159.730469 C 244.3125 157.308594 244.855469 154.570312 244.390625 151.671875 C 244.316406 151.203125 243.734375 150.546875 243.28125 150.449219 C 238.703125 149.457031 234.105469 148.5625 229.511719 147.648438 C 229.347656 147.613281 229.171875 147.625 228.789062 147.597656 C 228.789062 149.050781 228.746094 150.460938 228.824219 151.863281 Z M 213.894531 126.851562 C 214.011719 126.804688 214.132812 126.753906 214.25 126.707031 C 214.972656 128.546875 215.695312 130.386719 216.503906 132.445312 C 216.886719 132.574219 217.597656 132.804688 218.308594 133.035156 C 218.679688 126.707031 212.632812 120.671875 206.871094 121.699219 C 205.859375 121.878906 204.921875 122.492188 204.066406 123.195312 C 204.882812 123.019531 205.703125 122.84375 206.519531 122.664062 C 204.40625 124.472656 204.128906 124.933594 204.304688 126.582031 C 207.222656 125.816406 210.332031 126.546875 214.320312 131.101562 C 214.175781 129.683594 214.035156 128.269531 213.894531 126.851562 Z M 234.433594 160.765625 C 234.203125 162.59375 233.933594 164.363281 233.765625 166.140625 C 233.160156 172.585938 232.871094 179.027344 234.449219 185.386719 C 234.792969 186.78125 235.34375 188.175781 236.046875 189.429688 C 237.746094 192.441406 240.472656 192.960938 243.128906 190.722656 C 244.390625 189.660156 245.554688 188.363281 246.425781 186.964844 C 248.019531 184.394531 249.367188 181.667969 250.820312 179.011719 C 250.6875 178.9375 250.558594 178.867188 250.425781 178.796875 C 249.925781 179.765625 249.511719 180.792969 248.90625 181.691406 C 247.253906 184.136719 245.746094 186.730469 243.769531 188.886719 C 240.675781 192.257812 237.910156 191.566406 236.398438 187.246094 C 234.886719 182.917969 234.761719 178.390625 234.96875 173.882812 C 235.136719 170.136719 235.609375 166.40625 235.945312 162.667969 C 235.988281 162.191406 236.042969 161.714844 236.105469 161.128906 C 235.496094 160.996094 235.070312 160.902344 234.433594 160.765625 Z M 138.910156 161.117188 C 139.171875 163.390625 139.46875 165.613281 139.679688 167.84375 C 140.21875 173.492188 140.457031 179.148438 139.265625 184.746094 C 138.941406 186.277344 138.378906 187.8125 137.625 189.183594 C 136.535156 191.175781 134.730469 191.640625 132.9375 190.242188 C 131.292969 188.960938 129.828125 187.367188 128.5625 185.699219 C 127.214844 183.914062 126.195312 181.882812 125.035156 179.96875 C 125.011719 180.007812 124.925781 180.09375 124.941406 180.136719 C 126.445312 183.742188 128.207031 187.199219 131 190.007812 C 131.613281 190.625 132.367188 191.140625 133.136719 191.550781 C 134.90625 192.484375 136.722656 192.285156 137.925781 190.710938 C 138.949219 189.375 139.808594 187.800781 140.304688 186.195312 C 141.914062 180.960938 141.863281 175.546875 141.554688 170.152344 C 141.378906 167.070312 140.976562 164.003906 140.65625 160.761719 C 139.945312 160.910156 139.480469 161.003906 138.910156 161.117188 Z M 258.074219 127.019531 C 257.753906 125.886719 257.273438 124.761719 256.660156 123.757812 C 255.210938 121.394531 252.726562 120.742188 250.53125 122.421875 C 248.773438 123.769531 247.175781 125.445312 245.878906 127.242188 C 242.566406 131.8125 238.621094 141.429688 237.414062 147.277344 C 237.898438 147.386719 238.390625 147.496094 238.960938 147.625 C 239.753906 145.175781 240.492188 142.785156 241.304688 140.417969 C 242.835938 135.933594 244.632812 131.554688 247.324219 127.628906 C 248.308594 126.1875 249.496094 124.816406 250.832031 123.703125 C 252.863281 122.007812 254.957031 122.378906 256.074219 124.785156 C 257.101562 126.992188 257.8125 129.410156 258.269531 131.808594 C 258.765625 134.398438 258.804688 137.074219 259.066406 139.980469 C 259.277344 135.476562 259.265625 131.195312 258.074219 127.019531 Z M 117.269531 129.066406 C 117.550781 127.496094 118.242188 125.933594 119.042969 124.535156 C 120.242188 122.453125 122.167969 121.988281 123.941406 123.578125 C 125.722656 125.171875 127.328125 127.082031 128.589844 129.113281 C 131.851562 134.371094 133.773438 140.222656 135.53125 146.117188 C 135.671875 146.578125 135.8125 147.039062 135.964844 147.550781 C 136.3125 147.515625 136.613281 147.503906 136.910156 147.453125 C 137.117188 147.414062 137.316406 147.324219 137.730469 147.191406 C 136.789062 144.382812 135.953125 141.597656 134.921875 138.890625 C 132.9375 133.671875 130.714844 128.558594 126.863281 124.371094 C 126.15625 123.597656 125.328125 122.882812 124.433594 122.34375 C 121.996094 120.867188 119.550781 121.414062 118.246094 123.953125 C 117.355469 125.6875 116.664062 127.640625 116.410156 129.566406 C 115.960938 133 115.90625 136.488281 115.6875 139.957031 C 115.726562 139.953125 115.765625 139.949219 115.804688 139.945312 C 116.273438 136.316406 116.628906 132.664062 117.269531 129.066406 Z M 128.671875 143.753906 C 127.390625 143.703125 126.648438 144.65625 126.445312 145.679688 C 125.992188 147.953125 125.511719 150.28125 125.554688 152.578125 C 125.628906 156.71875 126.636719 160.726562 128.578125 164.417969 C 129.265625 165.726562 130.148438 167.003906 131.191406 168.042969 C 132.9375 169.777344 134.839844 169.078125 135.320312 166.644531 C 135.4375 166.0625 135.46875 165.460938 135.34375 164.8125 C 135.023438 165.519531 134.753906 166.253906 134.371094 166.921875 C 133.859375 167.808594 133.136719 167.964844 132.472656 167.117188 C 131.90625 166.394531 131.371094 165.609375 131.007812 164.769531 C 128.675781 159.4375 127.496094 153.855469 127.566406 148.027344 C 127.570312 147.457031 127.640625 146.875 127.761719 146.320312 C 128.152344 144.550781 128.871094 144.3125 130.335938 145.429688 C 130.511719 145.5625 130.683594 145.703125 130.855469 145.84375 C 130.496094 144.761719 129.929688 143.804688 128.671875 143.753906 Z M 241.246094 168.824219 C 242.964844 169.425781 244.050781 168.046875 244.9375 166.839844 C 247.601562 163.21875 248.847656 159.019531 249.25 154.625 C 249.480469 152.109375 249.15625 149.542969 249.035156 147 C 249.015625 146.574219 248.808594 146.148438 248.621094 145.75 C 248.167969 144.777344 247.6875 143.753906 246.40625 143.753906 C 245.125 143.753906 244.515625 144.6875 243.96875 145.695312 C 244.09375 145.734375 244.175781 145.792969 244.222656 145.773438 C 244.960938 145.464844 245.695312 145.144531 246.429688 144.828125 C 246.757812 145.664062 247.304688 146.480469 247.375 147.335938 C 247.726562 151.617188 246.902344 155.785156 245.765625 159.882812 C 245.296875 161.574219 244.59375 163.203125 243.960938 164.847656 C 243.773438 165.339844 243.542969 165.851562 243.199219 166.234375 C 242.722656 166.769531 242.117188 167.191406 241.566406 167.660156 C 241.101562 167.113281 240.597656 166.59375 240.1875 166.007812 C 239.945312 165.664062 239.855469 165.21875 239.695312 164.820312 C 239.628906 166.410156 239.472656 168.203125 241.246094 168.824219 Z M 206.222656 131.875 C 206.078125 132.359375 206.425781 133.289062 206.851562 133.605469 C 208.433594 134.777344 210.078125 135.902344 211.824219 136.796875 C 213.097656 137.449219 214.710938 135.992188 214.476562 134.332031 C 214.328125 133.308594 213.824219 132.171875 213.117188 131.429688 C 211.699219 129.945312 210.035156 128.703125 208.171875 127.097656 C 207.386719 128.960938 206.675781 130.378906 206.222656 131.875 Z M 202.671875 144.519531 C 202.671875 146.75 202.671875 148.882812 202.671875 151.140625 C 202.296875 151.058594 201.945312 150.980469 201.246094 150.828125 C 201.695312 151.28125 201.964844 151.507812 202.175781 151.785156 C 202.390625 152.070312 202.546875 152.402344 202.726562 152.710938 C 202.429688 152.878906 202.132812 153.042969 201.796875 153.230469 C 202.859375 154.03125 204.003906 153.878906 205.136719 153.410156 C 207.847656 152.292969 208.933594 149.558594 209.113281 147.148438 C 209.132812 146.882812 208.757812 146.523438 208.480469 146.3125 C 208.003906 145.945312 207.460938 145.660156 207.046875 145.402344 C 206.875 147.160156 206.757812 148.894531 206.496094 150.609375 C 206.429688 151.050781 205.914062 151.425781 205.453125 151.710938 C 206.785156 149.617188 206.21875 147.457031 205.785156 145.398438 C 205.425781 143.675781 202.871094 143.429688 201.039062 145.117188 C 201.769531 144.847656 202.160156 144.707031 202.671875 144.519531 Z M 287.929688 164.714844 C 288.53125 164.714844 289.082031 164.714844 289.78125 164.714844 C 289.058594 167.113281 289.167969 169.9375 286.417969 171.402344 C 287.117188 172.078125 287.558594 172.136719 288.105469 171.425781 C 288.53125 170.875 288.890625 170.25 289.167969 169.609375 C 290.316406 166.9375 290.890625 164.144531 290.710938 161.234375 C 290.609375 159.585938 290.40625 159.382812 288.917969 159.140625 C 288.589844 160.988281 288.277344 162.757812 287.929688 164.714844 Z M 85.382812 164.746094 C 85.898438 164.746094 86.414062 164.746094 87.054688 164.746094 C 86.71875 162.796875 86.417969 161.023438 86.105469 159.226562 C 85.085938 159.039062 84.535156 159.445312 84.421875 160.40625 C 83.957031 164.261719 84.703125 167.871094 86.710938 171.203125 C 87.226562 172.058594 87.914062 172.109375 88.816406 171.429688 C 86.890625 170.652344 85.386719 167.5625 85.382812 164.746094 Z M 200.753906 143.570312 C 202.035156 143.285156 203.28125 143.003906 204.5625 142.71875 C 203.867188 141.304688 203.109375 139.753906 202.296875 138.105469 C 201.691406 140.003906 202.792969 142.285156 200.753906 143.570312 Z M 200.753906 143.570312 " fill-opacity="1" fill-rule="nonzero"/></g><path fill="#00bf63" d="M 216.710938 148.351562 C 217.484375 148.351562 218.257812 148.351562 219.210938 148.351562 C 218.179688 149.257812 217.078125 149.464844 215.953125 149.285156 C 214.96875 149.125 214.414062 149.527344 214.074219 150.324219 C 213.554688 151.542969 213.0625 152.773438 212.636719 154.023438 C 212.105469 155.589844 212.648438 156.984375 213.496094 158.285156 C 213.957031 158.984375 214.460938 159.65625 215.125 160.597656 C 212.253906 159.460938 210.664062 157.507812 209.722656 154.917969 C 209.597656 154.945312 209.46875 154.96875 209.34375 154.992188 C 209.492188 156.6875 209.644531 158.378906 209.796875 160.105469 C 208.628906 158.855469 208.347656 157.273438 208.308594 155.597656 C 208.191406 155.574219 208.074219 155.550781 207.960938 155.527344 C 207.648438 156.523438 207.335938 157.519531 206.933594 158.796875 C 206.710938 157.945312 206.539062 157.28125 206.417969 156.808594 C 204.652344 156.910156 202.863281 157.011719 200.832031 157.125 C 196.246094 163.84375 192.988281 165.226562 187.667969 162.398438 C 184.820312 164.367188 183.480469 167.34375 182.414062 170.515625 C 182.199219 167.1875 183.371094 164.316406 185.164062 161.890625 C 183.429688 161.890625 181.65625 161.949219 179.890625 161.875 C 177.910156 161.785156 176.335938 160.796875 175.167969 159.257812 C 174.589844 158.5 174.035156 158.289062 173.160156 158.617188 C 169.023438 160.15625 164.875 161.660156 160.75 163.230469 C 160.433594 163.351562 160.015625 163.992188 160.097656 164.25 C 161.992188 170.164062 164.664062 175.601562 170.148438 179.0625 C 173.824219 181.386719 177.957031 182.074219 182.238281 181.839844 C 183.191406 181.785156 183.816406 182.007812 184.421875 182.695312 C 184.90625 183.246094 185.53125 183.671875 186.21875 184.066406 C 184.515625 182.1875 183.300781 180.121094 183.160156 177.410156 C 186.050781 181.511719 190.226562 181.929688 194.492188 181.5625 C 202.722656 180.851562 209.742188 177.253906 216.300781 172.351562 C 222.164062 167.96875 224.804688 162.125 225.363281 155.117188 C 225.667969 151.289062 225.742188 147.4375 225.910156 143.597656 C 225.925781 143.214844 225.855469 142.828125 225.804688 142.183594 C 225.386719 142.722656 225.117188 143.070312 224.851562 143.417969 C 225.976562 140.40625 224.070312 139.050781 221.929688 137.742188 C 221.03125 137.191406 220.257812 136.441406 219.4375 135.769531 C 218.339844 134.867188 217.195312 134.074219 215.613281 133.960938 C 215.515625 134.589844 215.460938 135.148438 215.34375 135.695312 C 214.851562 137.925781 213.167969 139.066406 211.027344 138.378906 C 209.664062 137.941406 208.304688 137.277344 207.152344 136.429688 C 204.949219 134.8125 204.464844 132.417969 205.628906 129.9375 C 205.996094 129.148438 206.492188 128.421875 206.929688 127.664062 C 205.476562 127.191406 204.414062 127.785156 203.816406 129.421875 C 203.070312 131.480469 203.3125 133.542969 203.996094 135.539062 C 205.757812 140.691406 209.4375 144.042969 214.378906 146.035156 C 216.542969 146.90625 218.820312 146.472656 221.070312 145.902344 C 220.25 147.085938 219.390625 147.515625 216.710938 148.351562 Z M 216.710938 148.351562 " fill-opacity="1" fill-rule="nonzero"/><path fill="#00bf63" d="M 108.34375 193.542969 C 106.429688 195.34375 104.785156 195.488281 102.636719 193.957031 C 101.851562 193.398438 101.023438 192.792969 100.46875 192.023438 C 98.84375 189.773438 97.058594 187.570312 95.847656 185.097656 C 89.441406 172.015625 86.613281 158.136719 87.296875 143.597656 C 87.429688 140.808594 88.132812 138.003906 88.910156 135.304688 C 89.726562 132.484375 91.78125 131.234375 94.738281 131.210938 C 95.300781 131.203125 95.863281 131.210938 96.210938 131.210938 C 97.109375 129.15625 97.804688 127.1875 98.800781 125.378906 C 100.4375 122.414062 103.492188 120.882812 106.761719 122.191406 C 106.910156 122.253906 107.09375 122.21875 107.289062 122.230469 C 108.960938 118.902344 110.78125 115.652344 114.792969 114.914062 C 118.773438 114.175781 121.683594 116.402344 124.378906 118.933594 C 124.054688 118.957031 123.777344 118.875 123.5 118.78125 C 121.109375 117.949219 118.972656 118.375 117.410156 120.378906 C 116.367188 121.714844 115.523438 123.277344 114.914062 124.859375 C 113.570312 128.359375 113.125 132.066406 112.996094 135.789062 C 112.480469 150.605469 115.3125 164.816406 120.96875 178.476562 C 122.988281 183.351562 125.433594 188.023438 129.171875 191.859375 C 131.394531 194.136719 133.863281 195.945312 137.535156 194.9375 C 137.300781 195.296875 137.203125 195.484375 137.074219 195.648438 C 134.058594 199.472656 129.820312 200.050781 125.386719 197.242188 C 124.769531 196.851562 124.164062 196.4375 123.578125 196.050781 C 120.132812 199.800781 117.097656 200.082031 113.195312 196.960938 C 111.71875 195.777344 110.425781 194.367188 108.890625 192.914062 C 108.746094 193.082031 108.566406 193.335938 108.34375 193.542969 Z M 99.429688 137.230469 C 100.960938 136.710938 102.382812 137.863281 102.351562 139.472656 C 102.089844 153.179688 104.964844 166.332031 109.371094 179.214844 C 109.699219 180.171875 109.464844 180.777344 108.695312 181.226562 C 107.175781 182.113281 105.621094 182.300781 104.046875 181.183594 C 104.015625 181.335938 103.933594 181.484375 103.976562 181.5625 C 106.378906 185.945312 108.722656 190.398438 112.28125 193.976562 C 113.617188 195.320312 115.300781 196.457031 117.027344 197.238281 C 119.054688 198.152344 120.953125 197.324219 122.539062 195.375 C 121.105469 193.78125 119.640625 192.203125 118.230469 190.578125 C 113.761719 185.433594 110.898438 179.445312 109.15625 172.914062 C 106.355469 162.433594 103.972656 151.878906 104.148438 140.925781 C 104.234375 135.632812 104.902344 130.4375 106.761719 125.449219 C 107.023438 124.746094 106.871094 124.421875 106.214844 124.128906 C 104.292969 123.273438 102.085938 123.902344 100.871094 125.785156 C 99.277344 128.25 98.664062 131.066406 98.121094 133.894531 C 97.820312 135.453125 97.605469 137.027344 97.359375 138.578125 C 98.070312 138.101562 98.6875 137.484375 99.429688 137.230469 Z M 97.25 185.328125 C 98.917969 187.605469 100.515625 189.960938 102.425781 192.019531 C 104.765625 194.539062 106.324219 194.355469 108.601562 191.894531 C 96.84375 173.824219 93.410156 154.117188 96.394531 133.050781 C 93.347656 132.117188 91.070312 133.082031 89.902344 136.027344 C 89.308594 137.523438 89.023438 139.136719 88.871094 140.789062 C 89.433594 140.261719 89.914062 139.546875 90.582031 139.257812 C 91.234375 138.972656 92.125 138.941406 92.824219 139.125 C 93.660156 139.347656 93.707031 140.171875 93.652344 140.996094 C 92.773438 154.742188 95.230469 167.929688 100.28125 180.695312 C 100.515625 181.292969 100.539062 182.378906 100.175781 182.707031 C 99.613281 183.21875 98.640625 183.441406 97.832031 183.472656 C 97.261719 183.496094 96.667969 183 95.828125 182.617188 C 96.363281 183.652344 96.695312 184.574219 97.25 185.328125 Z M 124.988281 188.945312 C 122.992188 185.890625 121.402344 182.566406 119.648438 179.351562 C 119.382812 178.867188 119.203125 178.332031 118.96875 177.785156 C 117.222656 180.175781 115.984375 180.484375 113.046875 179.101562 C 113.710938 180.402344 114.226562 181.503906 114.820312 182.558594 C 117.289062 186.9375 120.179688 190.996094 123.980469 194.339844 C 125.828125 195.960938 127.855469 197.265625 130.335938 197.75 C 131.917969 198.058594 133.175781 197.546875 134.382812 196.394531 C 129.992188 195.390625 127.234375 192.375 124.988281 188.945312 Z M 111.21875 136.339844 C 111.542969 133.933594 111.789062 131.539062 112.199219 129.175781 C 112.746094 126.027344 113.601562 122.960938 115.480469 120.296875 C 116.890625 118.296875 117.957031 117.625 120.3125 117.164062 C 118.691406 115.511719 115.097656 115.320312 112.75 116.921875 C 111.828125 117.550781 110.988281 118.425781 110.382812 119.367188 C 108.011719 123.0625 107.164062 127.269531 106.605469 131.542969 C 106.378906 133.285156 106.234375 135.039062 106.011719 137.125 C 107.894531 134.917969 108.839844 134.820312 111.21875 136.339844 Z M 111.21875 136.339844 " fill-opacity="1" fill-rule="nonzero"/><path fill="#00bf63" d="M 264.734375 194.167969 C 262.972656 195.621094 261.316406 197.277344 259.355469 198.394531 C 256.816406 199.839844 254.28125 199.152344 252.285156 196.996094 C 251.988281 196.679688 251.699219 196.359375 251.421875 196.054688 C 244.976562 200.070312 239.652344 199.65625 237.808594 195.273438 C 239.035156 195.140625 240.441406 195.277344 241.585938 194.792969 C 243.011719 194.191406 244.371094 193.230469 245.503906 192.15625 C 248.5625 189.257812 250.640625 185.640625 252.46875 181.894531 C 256.890625 172.835938 259.496094 163.226562 260.996094 153.300781 C 262.207031 145.308594 262.679688 137.292969 261.265625 129.269531 C 260.773438 126.472656 260.007812 123.75 258.402344 121.347656 C 256.449219 118.425781 253.921875 117.703125 250.71875 119.132812 C 250.621094 119.175781 250.503906 119.171875 250.09375 119.246094 C 252.921875 116.710938 255.628906 114.519531 259.394531 114.816406 C 263.976562 115.179688 265.890625 118.757812 267.65625 122.078125 C 269.117188 122 270.460938 121.695312 271.714844 121.90625 C 274.375 122.347656 275.832031 124.355469 276.898438 126.617188 C 277.59375 128.085938 278.082031 129.652344 278.679688 131.222656 C 278.992188 131.222656 279.34375 131.230469 279.695312 131.21875 C 283.242188 131.132812 285.292969 132.367188 286.234375 135.773438 C 287.019531 138.605469 287.632812 141.5625 287.753906 144.484375 C 288.300781 157.359375 285.78125 169.722656 280.855469 181.59375 C 279.121094 185.769531 277.007812 189.777344 273.648438 192.929688 C 270.636719 195.757812 268.417969 195.640625 266.128906 193.027344 C 266.078125 192.96875 265.980469 192.953125 265.839844 192.886719 C 265.480469 193.308594 265.164062 193.8125 264.734375 194.167969 Z M 270.269531 133.636719 C 271.3125 140.195312 271.023438 146.78125 270.03125 153.320312 C 268.8125 161.367188 267.179688 169.324219 264.527344 177.042969 C 262.4375 183.121094 259.050781 188.402344 254.59375 193.019531 C 253.863281 193.773438 253.179688 194.574219 252.480469 195.34375 C 254.015625 197.402344 256.101562 198.171875 258.316406 197.113281 C 259.914062 196.347656 261.46875 195.277344 262.707031 194.011719 C 266.304688 190.351562 268.652344 185.816406 271.039062 181.617188 C 269.820312 181.652344 268.542969 181.871094 267.332031 181.671875 C 265.628906 181.394531 265.257812 180.410156 265.800781 178.792969 C 270.023438 166.191406 272.851562 153.335938 272.648438 139.960938 C 272.628906 138.660156 272.875 137.652344 274.183594 137.246094 C 275.417969 136.863281 276.4375 137.289062 277.183594 138.351562 C 277.253906 138.449219 277.347656 138.523438 277.613281 138.808594 C 277.050781 134.324219 276.492188 130.089844 274.4375 126.253906 C 273.070312 123.703125 270.664062 123.109375 268.207031 124.507812 C 268.925781 127.625 269.785156 130.601562 270.269531 133.636719 Z M 267.683594 193.058594 C 269.125 194.0625 270.195312 194.0625 271.550781 192.957031 C 274.898438 190.214844 277.230469 186.714844 279.148438 182.628906 C 278.414062 182.972656 277.902344 183.285156 277.347656 183.457031 C 276.390625 183.757812 275.515625 183.585938 274.804688 182.808594 C 274.152344 182.089844 274.394531 181.398438 274.707031 180.609375 C 279.804688 167.820312 282.269531 154.589844 281.332031 140.796875 C 281.222656 139.195312 282.738281 138.28125 284.242188 139.128906 C 284.945312 139.527344 285.492188 140.199219 286.085938 140.726562 C 286.296875 138.773438 285.261719 135.503906 283.925781 134.109375 C 282.390625 132.503906 280.523438 132.511719 278.585938 132.976562 C 281.605469 154.097656 278.152344 173.75 266.367188 191.960938 C 266.671875 192.214844 267.148438 192.683594 267.683594 193.058594 Z M 256.117188 177.828125 C 252.5 185.246094 249.417969 193.097656 240.796875 196.570312 C 241.796875 197.546875 243.035156 198.042969 244.582031 197.761719 C 247.449219 197.238281 249.703125 195.628906 251.742188 193.6875 C 255.960938 189.679688 259.152344 184.929688 261.636719 179.691406 C 261.703125 179.546875 261.71875 179.378906 261.773438 179.167969 C 259.007812 180.507812 257.664062 180.175781 256.117188 177.828125 Z M 264.386719 118.96875 C 262.242188 115.65625 257.632812 114.824219 254.414062 117.222656 C 257.246094 117.304688 258.867188 119.042969 260.113281 121.207031 C 262.230469 124.890625 262.925781 128.988281 263.398438 133.132812 C 263.515625 134.1875 263.597656 135.242188 263.6875 136.183594 C 264.628906 135.890625 265.585938 135.3125 266.496094 135.386719 C 267.332031 135.449219 268.117188 136.210938 268.933594 136.667969 C 268.332031 130.632812 267.910156 124.410156 264.386719 118.96875 Z M 264.386719 118.96875 " fill-opacity="1" fill-rule="nonzero"/><path fill="#00bf63" d="M 173.015625 215.71875 C 183.285156 216.539062 193.300781 217.160156 203.257812 214.972656 C 204.503906 214.699219 204.824219 214.1875 204.816406 212.9375 C 204.757812 204.136719 204.796875 195.332031 204.800781 186.53125 C 204.800781 186.277344 204.761719 186.023438 204.730469 185.617188 C 198.984375 187.984375 193.015625 188.453125 186.605469 188.429688 C 186.605469 192.890625 186.605469 197.277344 186.605469 201.660156 C 186.453125 201.660156 186.296875 201.660156 186.144531 201.660156 C 185.925781 197.757812 185.648438 193.855469 185.519531 189.945312 C 185.476562 188.675781 185.074219 188.207031 183.828125 188.339844 C 183.09375 188.417969 182.34375 188.355469 181.429688 188.355469 C 181.277344 195.71875 181.125 203.042969 180.972656 210.367188 C 180.910156 210.371094 180.851562 210.378906 180.789062 210.382812 C 180.421875 207.296875 180.054688 204.214844 179.691406 201.128906 C 179.222656 197.089844 178.753906 193.050781 178.300781 189.007812 C 178.21875 188.273438 178.03125 187.730469 177.128906 187.761719 C 176.785156 187.777344 176.4375 187.636719 176.085938 187.582031 C 173.265625 187.128906 173.144531 187.128906 173.105469 190.113281 C 173.011719 197.453125 173.039062 204.796875 173.015625 212.136719 C 173.015625 213.28125 173.015625 214.425781 173.015625 215.71875 Z M 173.015625 215.71875 " fill-opacity="1" fill-rule="nonzero"/><path fill="#00bf63" d="M 189.992188 151.203125 C 190.5 151.132812 191.003906 151.058594 191.65625 150.964844 C 191.777344 153.355469 191.890625 155.671875 192.011719 158.113281 C 191.199219 158.042969 190.601562 157.988281 190.003906 157.9375 C 189.960938 158.035156 189.914062 158.132812 189.871094 158.230469 C 190.8125 158.652344 191.75 159.074219 192.6875 159.496094 C 192.683594 159.558594 192.679688 159.621094 192.671875 159.679688 C 191.832031 159.625 190.992188 159.566406 190.152344 159.507812 C 190.097656 159.605469 190.039062 159.699219 189.980469 159.796875 C 190.726562 160.183594 191.433594 160.746094 192.226562 160.921875 C 194.597656 161.449219 197.171875 160.234375 198.273438 158.0625 C 199.289062 156.058594 199.789062 154 198.914062 151.703125 C 198.445312 150.460938 198.261719 148.996094 198.371094 147.667969 C 198.832031 142.078125 199.433594 136.5 200.015625 130.921875 C 200.183594 129.339844 200.414062 127.765625 200.707031 126.203125 C 200.882812 125.265625 201.234375 124.359375 201.554688 123.277344 C 200.105469 121.390625 198.222656 119.878906 195.519531 119.785156 C 194.019531 119.730469 192.515625 119.738281 191.015625 119.792969 C 188.972656 119.867188 187.789062 121.15625 186.925781 122.921875 C 189.0625 120.433594 191.695312 119.898438 194.71875 120.792969 C 192.8125 121.082031 190.554688 120.476562 189.761719 122.792969 C 191.015625 122.792969 192.542969 122.792969 194.207031 122.792969 C 194.007812 122.949219 193.949219 123.03125 193.875 123.046875 C 190.386719 123.898438 190.128906 123.464844 189.960938 127.65625 C 189.734375 133.300781 189.917969 138.964844 189.9375 144.621094 C 189.941406 145.410156 190.023438 146.203125 190.070312 147.085938 C 191.222656 147.1875 192.335938 147.285156 193.484375 147.390625 C 191.984375 147.996094 190.582031 148.566406 189.183594 149.132812 C 189.222656 149.167969 189.265625 149.203125 189.304688 149.238281 C 191.066406 149.085938 192.828125 148.789062 194.585938 148.824219 C 196.636719 148.863281 197.253906 149.496094 197.503906 151.503906 C 197.6875 152.945312 197.796875 154.410156 197.726562 155.855469 C 197.640625 157.625 196.699219 158.585938 194.847656 159.03125 C 196.609375 158.257812 196.71875 156.761719 196.640625 155.191406 C 196.59375 154.308594 196.550781 153.425781 196.472656 152.546875 C 196.273438 150.269531 196.015625 149.984375 193.675781 150.121094 C 192.414062 150.191406 191.164062 150.542969 189.910156 150.769531 C 189.9375 150.914062 189.964844 151.058594 189.992188 151.203125 Z M 189.992188 151.203125 " fill-opacity="1" fill-rule="nonzero"/><path fill="#00bf63" d="M 172.910156 124.933594 C 175 123.992188 177.113281 123.21875 179.382812 123.332031 C 177.441406 124.132812 175.476562 124.941406 173.511719 125.753906 C 173.5625 125.972656 173.613281 126.191406 173.667969 126.410156 C 175.007812 126.410156 176.351562 126.410156 177.90625 126.410156 C 176.324219 127.085938 174.972656 127.664062 173.621094 128.238281 C 173.640625 128.351562 173.664062 128.460938 173.683594 128.570312 C 174.035156 128.605469 174.386719 128.636719 174.75 128.671875 C 175.761719 134.71875 176.773438 140.765625 177.796875 146.878906 C 178.628906 146.878906 179.367188 146.878906 180.472656 146.878906 C 178.929688 147.765625 177.542969 148.351562 176.914062 150.070312 C 180.167969 147.660156 183.011719 147.503906 184.382812 149.511719 C 186.183594 152.152344 186.046875 156.300781 183.992188 157.496094 C 185.515625 155.734375 184.632812 153.933594 184.148438 152.179688 C 183.316406 149.148438 180.789062 148.550781 178.417969 150.761719 C 178.644531 150.96875 179.007812 151.136719 179.070312 151.378906 C 179.292969 152.277344 179.390625 153.203125 179.582031 154.109375 C 179.757812 154.964844 179.996094 155.804688 180.234375 156.753906 C 179.777344 156.753906 179.410156 156.753906 179.046875 156.753906 C 179.015625 156.839844 178.984375 156.921875 178.953125 157.007812 C 179.617188 157.355469 180.28125 157.707031 180.941406 158.058594 C 180.925781 158.113281 180.914062 158.167969 180.898438 158.222656 C 180.15625 158.066406 179.410156 157.910156 178.65625 157.753906 C 178.21875 159.203125 179.316406 159.6875 180.328125 159.878906 C 182.273438 160.242188 184.136719 159.765625 185.691406 158.515625 C 186.695312 157.710938 186.910156 156.515625 186.820312 155.261719 C 186.261719 147.5 185.6875 139.738281 185.160156 131.972656 C 185.019531 129.898438 185.046875 127.816406 184.972656 125.738281 C 184.957031 125.3125 184.957031 124.792969 184.722656 124.484375 C 183.300781 122.613281 181.421875 121.546875 179.015625 121.703125 C 176.519531 121.863281 174.289062 122.605469 172.910156 124.933594 Z M 172.910156 124.933594 " fill-opacity="1" fill-rule="nonzero"/><path fill="#00bf63" d="M 166.589844 149.824219 C 165.1875 148.527344 163.742188 147.148438 162.234375 145.84375 C 161.925781 145.574219 161.378906 145.417969 160.964844 145.460938 C 151.230469 146.480469 141.617188 148.210938 132.066406 150.320312 C 131.046875 150.542969 130.621094 151.019531 130.523438 151.960938 C 130.25 154.546875 130.738281 156.96875 131.996094 159.246094 C 132.515625 160.191406 133.164062 160.457031 134.269531 160.242188 C 141.082031 158.90625 147.886719 157.519531 154.734375 156.410156 C 159.664062 155.613281 164.660156 155.21875 169.625 154.648438 C 170.105469 154.59375 170.589844 154.566406 171.113281 154.523438 C 171.265625 153.546875 170.835938 153.339844 170 153.414062 C 159.894531 154.289062 149.894531 155.863281 139.980469 157.976562 C 138.25 158.34375 136.511719 158.667969 134.792969 159.089844 C 133.757812 159.34375 133.054688 159.074219 132.65625 158.105469 C 132.210938 157.023438 131.8125 155.921875 131.488281 155.070312 C 132.46875 155.070312 133.292969 155.199219 134.070312 155.050781 C 141.019531 153.746094 147.945312 152.285156 154.914062 151.09375 C 158.613281 150.460938 162.386719 150.261719 166.125 149.867188 C 166.363281 149.84375 166.601562 149.820312 166.589844 149.824219 Z M 166.589844 149.824219 " fill-opacity="1" fill-rule="nonzero"/><path fill="#00bf63" d="M 228.789062 147.601562 C 228.789062 149.050781 228.746094 150.460938 228.824219 151.863281 C 228.839844 152.164062 229.242188 152.636719 229.535156 152.703125 C 233.597656 153.574219 237.664062 154.414062 241.746094 155.1875 C 242.246094 155.28125 242.832031 154.9375 243.46875 154.773438 C 243.335938 155.347656 243.238281 155.992188 243.039062 156.609375 C 242.238281 159.097656 241.742188 159.378906 239.234375 158.859375 C 235.988281 158.183594 232.75 157.492188 229.496094 156.855469 C 229.054688 156.769531 228.554688 156.972656 228.085938 157.042969 C 228.09375 157.222656 228.105469 157.402344 228.117188 157.582031 C 230.003906 157.972656 231.886719 158.367188 233.773438 158.757812 C 236.238281 159.269531 238.699219 159.820312 241.179688 160.253906 C 241.625 160.332031 242.359375 160.082031 242.605469 159.730469 C 244.3125 157.308594 244.855469 154.570312 244.390625 151.671875 C 244.316406 151.203125 243.734375 150.546875 243.28125 150.449219 C 238.703125 149.457031 234.105469 148.5625 229.511719 147.648438 C 229.347656 147.613281 229.171875 147.625 228.789062 147.601562 Z M 228.789062 147.601562 " fill-opacity="1" fill-rule="nonzero"/><path fill="#00bf63" d="M 171.230469 146.632812 C 170.128906 146.519531 168.929688 146.644531 167.953125 146.238281 C 165.765625 145.320312 164.574219 143.335938 163.445312 141.359375 C 163.164062 140.863281 162.863281 140.378906 162.445312 139.96875 C 163.632812 142.777344 164.710938 145.691406 167.480469 147.425781 C 168.980469 148.367188 170.617188 148.195312 172.179688 147.441406 C 173.230469 146.9375 173.667969 146.046875 173.421875 144.921875 C 172.300781 139.789062 171.148438 134.660156 170 129.53125 C 169.914062 129.144531 169.75 128.773438 169.613281 128.402344 C 168.359375 125.050781 166.308594 124.273438 163.167969 125.960938 C 161.414062 126.902344 160.078125 128.632812 159.628906 130.351562 C 160.457031 129.609375 161.34375 128.484375 162.5 127.878906 C 163.632812 127.285156 165.042969 127.21875 166.328125 126.921875 C 166.367188 127.054688 166.40625 127.191406 166.441406 127.324219 C 165.738281 127.632812 165.011719 127.902344 164.332031 128.261719 C 163.679688 128.601562 163.078125 129.03125 162.550781 129.664062 C 163.363281 129.519531 164.179688 129.371094 164.996094 129.226562 C 163.367188 130.519531 163.785156 131.957031 164.574219 133.40625 C 165.289062 134.722656 166.015625 136.039062 166.828125 137.304688 C 167.128906 137.78125 167.675781 138.101562 168.152344 138.53125 C 167.738281 139.066406 166.324219 139.308594 167.011719 140.753906 C 167.8125 139.265625 168.832031 138.65625 170.085938 138.871094 C 170.34375 138.914062 170.609375 138.984375 170.839844 139.101562 C 172.386719 139.898438 173.285156 144.992188 172.078125 146.21875 C 171.855469 146.445312 171.484375 146.527344 171.179688 146.671875 Z M 171.230469 146.632812 " fill-opacity="1" fill-rule="nonzero"/><path fill="#00bf63" d="M 214.320312 131.101562 C 214.175781 129.683594 214.035156 128.269531 213.894531 126.851562 C 214.011719 126.804688 214.132812 126.753906 214.25 126.707031 C 214.972656 128.546875 215.695312 130.386719 216.503906 132.445312 C 216.886719 132.574219 217.597656 132.804688 218.308594 133.035156 C 218.679688 126.707031 212.632812 120.671875 206.871094 121.699219 C 205.859375 121.878906 204.921875 122.492188 204.066406 123.195312 C 204.882812 123.019531 205.703125 122.84375 206.519531 122.664062 C 204.40625 124.472656 204.128906 124.933594 204.304688 126.582031 C 207.222656 125.816406 210.332031 126.546875 214.320312 131.101562 Z M 214.320312 131.101562 " fill-opacity="1" fill-rule="nonzero"/><path fill="#00bf63" d="M 236.105469 161.125 C 235.496094 160.996094 235.070312 160.902344 234.433594 160.765625 C 234.203125 162.59375 233.933594 164.363281 233.765625 166.140625 C 233.15625 172.585938 232.871094 179.027344 234.445312 185.386719 C 234.792969 186.785156 235.339844 188.175781 236.046875 189.429688 C 237.742188 192.441406 240.472656 192.960938 243.128906 190.726562 C 244.390625 189.660156 245.554688 188.363281 246.425781 186.964844 C 248.019531 184.394531 249.367188 181.671875 250.820312 179.011719 C 250.6875 178.941406 250.558594 178.867188 250.425781 178.796875 C 249.925781 179.765625 249.511719 180.792969 248.90625 181.691406 C 247.253906 184.136719 245.746094 186.730469 243.765625 188.886719 C 240.675781 192.257812 237.910156 191.566406 236.398438 187.246094 C 234.886719 182.917969 234.761719 178.390625 234.96875 173.882812 C 235.136719 170.136719 235.609375 166.40625 235.945312 162.667969 C 235.988281 162.191406 236.042969 161.714844 236.105469 161.125 Z M 236.105469 161.125 " fill-opacity="1" fill-rule="nonzero"/><path fill="#00bf63" d="M 140.65625 160.761719 C 139.945312 160.910156 139.480469 161.003906 138.910156 161.117188 C 139.171875 163.390625 139.46875 165.613281 139.679688 167.84375 C 140.21875 173.492188 140.457031 179.148438 139.265625 184.746094 C 138.941406 186.277344 138.378906 187.8125 137.625 189.183594 C 136.535156 191.175781 134.730469 191.640625 132.9375 190.242188 C 131.292969 188.960938 129.828125 187.367188 128.5625 185.699219 C 127.214844 183.914062 126.195312 181.882812 125.035156 179.96875 C 125.011719 180.007812 124.925781 180.09375 124.941406 180.136719 C 126.445312 183.742188 128.207031 187.199219 131 190.007812 C 131.613281 190.625 132.367188 191.140625 133.136719 191.550781 C 134.90625 192.484375 136.722656 192.285156 137.925781 190.710938 C 138.949219 189.375 139.808594 187.800781 140.304688 186.195312 C 141.914062 180.960938 141.863281 175.546875 141.554688 170.152344 C 141.378906 167.070312 140.976562 164.003906 140.65625 160.761719 Z M 140.65625 160.761719 " fill-opacity="1" fill-rule="nonzero"/><path fill="#00bf63" d="M 259.066406 139.980469 C 259.277344 135.476562 259.265625 131.195312 258.074219 127.019531 C 257.753906 125.886719 257.273438 124.761719 256.660156 123.757812 C 255.210938 121.394531 252.726562 120.742188 250.53125 122.421875 C 248.773438 123.769531 247.175781 125.445312 245.878906 127.242188 C 242.566406 131.8125 238.621094 141.429688 237.414062 147.277344 C 237.898438 147.386719 238.390625 147.496094 238.960938 147.625 C 239.753906 145.175781 240.492188 142.785156 241.304688 140.417969 C 242.835938 135.933594 244.632812 131.554688 247.324219 127.628906 C 248.308594 126.1875 249.496094 124.816406 250.832031 123.703125 C 252.863281 122.007812 254.957031 122.378906 256.074219 124.785156 C 257.101562 126.992188 257.8125 129.410156 258.269531 131.808594 C 258.765625 134.398438 258.804688 137.074219 259.066406 139.980469 Z M 259.066406 139.980469 " fill-opacity="1" fill-rule="nonzero"/><path fill="#00bf63" d="M 115.804688 139.945312 C 116.273438 136.316406 116.628906 132.664062 117.269531 129.066406 C 117.550781 127.496094 118.242188 125.933594 119.042969 124.535156 C 120.242188 122.453125 122.167969 121.988281 123.941406 123.578125 C 125.722656 125.171875 127.328125 127.082031 128.589844 129.113281 C 131.851562 134.371094 133.773438 140.222656 135.53125 146.117188 C 135.671875 146.578125 135.8125 147.039062 135.964844 147.550781 C 136.3125 147.515625 136.613281 147.503906 136.910156 147.453125 C 137.117188 147.414062 137.316406 147.324219 137.730469 147.191406 C 136.789062 144.382812 135.953125 141.597656 134.921875 138.890625 C 132.9375 133.671875 130.714844 128.558594 126.863281 124.371094 C 126.15625 123.597656 125.328125 122.882812 124.433594 122.34375 C 121.996094 120.867188 119.550781 121.414062 118.246094 123.953125 C 117.355469 125.6875 116.664062 127.640625 116.410156 129.566406 C 115.960938 133 115.90625 136.488281 115.6875 139.957031 C 115.726562 139.953125 115.765625 139.949219 115.804688 139.945312 Z M 115.804688 139.945312 " fill-opacity="1" fill-rule="nonzero"/><path fill="#00bf63" d="M 130.855469 145.84375 C 130.496094 144.761719 129.929688 143.804688 128.671875 143.753906 C 127.390625 143.703125 126.648438 144.65625 126.445312 145.679688 C 125.992188 147.953125 125.515625 150.28125 125.554688 152.578125 C 125.628906 156.71875 126.636719 160.726562 128.578125 164.417969 C 129.265625 165.726562 130.148438 167.003906 131.195312 168.042969 C 132.941406 169.777344 134.839844 169.078125 135.320312 166.644531 C 135.4375 166.0625 135.46875 165.460938 135.34375 164.8125 C 135.023438 165.519531 134.753906 166.253906 134.371094 166.921875 C 133.863281 167.808594 133.136719 167.964844 132.472656 167.117188 C 131.90625 166.394531 131.371094 165.609375 131.007812 164.769531 C 128.675781 159.4375 127.496094 153.855469 127.566406 148.027344 C 127.570312 147.457031 127.640625 146.875 127.761719 146.320312 C 128.152344 144.550781 128.875 144.3125 130.335938 145.429688 C 130.511719 145.5625 130.683594 145.703125 130.855469 145.84375 Z M 130.855469 145.84375 " fill-opacity="1" fill-rule="nonzero"/><path fill="#00bf63" d="M 239.695312 164.820312 C 239.628906 166.410156 239.472656 168.203125 241.246094 168.824219 C 242.964844 169.425781 244.050781 168.046875 244.9375 166.839844 C 247.601562 163.21875 248.847656 159.019531 249.25 154.625 C 249.480469 152.109375 249.15625 149.542969 249.035156 147 C 249.015625 146.574219 248.808594 146.148438 248.621094 145.75 C 248.167969 144.777344 247.6875 143.753906 246.40625 143.753906 C 245.125 143.753906 244.515625 144.6875 243.96875 145.695312 C 244.09375 145.734375 244.175781 145.792969 244.222656 145.773438 C 244.960938 145.464844 245.695312 145.144531 246.429688 144.828125 C 246.757812 145.664062 247.304688 146.480469 247.375 147.335938 C 247.726562 151.617188 246.902344 155.785156 245.765625 159.882812 C 245.296875 161.574219 244.59375 163.203125 243.960938 164.847656 C 243.773438 165.339844 243.542969 165.851562 243.199219 166.234375 C 242.722656 166.769531 242.117188 167.191406 241.566406 167.660156 C 241.101562 167.113281 240.597656 166.59375 240.1875 166.007812 C 239.945312 165.664062 239.855469 165.21875 239.695312 164.820312 Z M 239.695312 164.820312 " fill-opacity="1" fill-rule="nonzero"/><path fill="#00bf63" d="M 208.171875 127.097656 C 207.386719 128.960938 206.675781 130.378906 206.222656 131.875 C 206.078125 132.359375 206.425781 133.289062 206.851562 133.605469 C 208.433594 134.777344 210.078125 135.902344 211.824219 136.796875 C 213.097656 137.449219 214.710938 135.992188 214.476562 134.332031 C 214.328125 133.308594 213.824219 132.171875 213.117188 131.429688 C 211.699219 129.945312 210.035156 128.699219 208.171875 127.097656 Z M 208.171875 127.097656 " fill-opacity="1" fill-rule="nonzero"/><path fill="#00bf63" d="M 201.039062 145.113281 C 201.769531 144.847656 202.160156 144.707031 202.671875 144.519531 C 202.671875 146.75 202.671875 148.882812 202.671875 151.140625 C 202.296875 151.054688 201.945312 150.980469 201.25 150.828125 C 201.695312 151.28125 201.964844 151.507812 202.175781 151.78125 C 202.390625 152.066406 202.546875 152.398438 202.726562 152.710938 C 202.429688 152.875 202.132812 153.042969 201.796875 153.230469 C 202.859375 154.03125 204.003906 153.878906 205.136719 153.410156 C 207.847656 152.292969 208.933594 149.558594 209.113281 147.148438 C 209.132812 146.882812 208.757812 146.523438 208.480469 146.3125 C 208.003906 145.945312 207.464844 145.660156 207.046875 145.402344 C 206.875 147.160156 206.757812 148.894531 206.496094 150.609375 C 206.429688 151.050781 205.917969 151.425781 205.453125 151.710938 C 206.785156 149.617188 206.21875 147.457031 205.785156 145.398438 C 205.425781 143.675781 202.871094 143.429688 201.039062 145.113281 Z M 201.039062 145.113281 " fill-opacity="1" fill-rule="nonzero"/><path fill="#00bf63" d="M 288.917969 159.140625 C 288.589844 160.988281 288.277344 162.757812 287.929688 164.714844 C 288.53125 164.714844 289.082031 164.714844 289.78125 164.714844 C 289.058594 167.113281 289.167969 169.9375 286.417969 171.402344 C 287.117188 172.078125 287.558594 172.136719 288.105469 171.425781 C 288.53125 170.875 288.890625 170.25 289.167969 169.609375 C 290.316406 166.9375 290.890625 164.144531 290.710938 161.234375 C 290.609375 159.585938 290.40625 159.382812 288.917969 159.140625 Z M 288.917969 159.140625 " fill-opacity="1" fill-rule="nonzero"/><path fill="#00bf63" d="M 88.816406 171.429688 C 86.890625 170.652344 85.386719 167.5625 85.382812 164.746094 C 85.898438 164.746094 86.414062 164.746094 87.054688 164.746094 C 86.71875 162.796875 86.417969 161.023438 86.105469 159.226562 C 85.085938 159.039062 84.535156 159.445312 84.421875 160.40625 C 83.957031 164.261719 84.703125 167.871094 86.710938 171.203125 C 87.226562 172.058594 87.914062 172.109375 88.816406 171.429688 Z M 88.816406 171.429688 " fill-opacity="1" fill-rule="nonzero"/><path fill="#00bf63" d="M 171.179688 146.671875 C 172.042969 145.730469 172.164062 144.6875 171.675781 143.511719 C 171.351562 142.742188 171.113281 141.9375 170.851562 141.144531 C 170.523438 140.136719 169.914062 139.8125 168.898438 140.328125 C 169.441406 142.121094 169.960938 143.914062 170.539062 145.6875 C 170.652344 146.039062 170.992188 146.320312 171.230469 146.632812 C 171.230469 146.632812 171.179688 146.671875 171.179688 146.671875 Z M 171.179688 146.671875 " fill-opacity="1" fill-rule="nonzero"/><path fill="#00bf63" d="M 202.296875 138.105469 C 201.691406 140.003906 202.792969 142.285156 200.753906 143.570312 C 202.035156 143.285156 203.28125 143.003906 204.5625 142.71875 C 203.867188 141.304688 203.109375 139.753906 202.296875 138.105469 Z M 202.296875 138.105469 " fill-opacity="1" fill-rule="nonzero"/><path fill="#000000" d="M 97.359375 138.578125 C 98.070312 138.101562 98.6875 137.484375 99.429688 137.230469 C 100.960938 136.710938 102.382812 137.863281 102.351562 139.472656 C 102.089844 153.179688 104.964844 166.332031 109.371094 179.214844 C 109.699219 180.171875 109.464844 180.777344 108.695312 181.226562 C 107.175781 182.113281 105.621094 182.300781 104.046875 181.183594 C 104.015625 181.335938 103.933594 181.484375 103.976562 181.5625 C 106.378906 185.945312 108.722656 190.398438 112.28125 193.976562 C 113.617188 195.320312 115.300781 196.457031 117.027344 197.238281 C 119.054688 198.152344 120.953125 197.324219 122.539062 195.375 C 121.105469 193.78125 119.640625 192.203125 118.230469 190.578125 C 113.761719 185.433594 110.898438 179.445312 109.15625 172.914062 C 106.355469 162.433594 103.972656 151.878906 104.148438 140.925781 C 104.234375 135.632812 104.902344 130.4375 106.761719 125.449219 C 107.023438 124.746094 106.871094 124.421875 106.214844 124.128906 C 104.292969 123.273438 102.085938 123.902344 100.871094 125.785156 C 99.277344 128.25 98.664062 131.066406 98.121094 133.894531 C 97.820312 135.453125 97.609375 137.027344 97.359375 138.578125 Z M 97.359375 138.578125 " fill-opacity="1" fill-rule="nonzero"/><path fill="#000000" d="M 95.828125 182.617188 C 96.363281 183.652344 96.695312 184.574219 97.25 185.328125 C 98.917969 187.605469 100.515625 189.960938 102.425781 192.019531 C 104.765625 194.539062 106.324219 194.355469 108.601562 191.894531 C 96.84375 173.824219 93.410156 154.117188 96.394531 133.050781 C 93.347656 132.117188 91.070312 133.082031 89.902344 136.027344 C 89.308594 137.523438 89.023438 139.136719 88.871094 140.789062 C 89.433594 140.261719 89.914062 139.546875 90.582031 139.257812 C 91.234375 138.972656 92.125 138.941406 92.824219 139.125 C 93.660156 139.347656 93.707031 140.171875 93.652344 140.996094 C 92.773438 154.742188 95.230469 167.929688 100.28125 180.695312 C 100.515625 181.292969 100.539062 182.378906 100.175781 182.707031 C 99.613281 183.21875 98.640625 183.441406 97.832031 183.472656 C 97.261719 183.496094 96.667969 183 95.828125 182.617188 Z M 95.828125 182.617188 " fill-opacity="1" fill-rule="nonzero"/><path fill="#000000" d="M 134.382812 196.394531 C 129.992188 195.390625 127.234375 192.375 124.988281 188.945312 C 122.992188 185.890625 121.402344 182.566406 119.648438 179.351562 C 119.382812 178.867188 119.203125 178.332031 118.96875 177.785156 C 117.222656 180.175781 115.984375 180.484375 113.046875 179.101562 C 113.710938 180.402344 114.226562 181.503906 114.820312 182.558594 C 117.289062 186.9375 120.179688 190.996094 123.980469 194.339844 C 125.828125 195.960938 127.855469 197.265625 130.335938 197.75 C 131.917969 198.058594 133.175781 197.546875 134.382812 196.394531 Z M 134.382812 196.394531 " fill-opacity="1" fill-rule="nonzero"/><path fill="#000000" d="M 106.015625 137.125 C 107.894531 134.917969 108.839844 134.820312 111.21875 136.339844 C 111.542969 133.933594 111.789062 131.539062 112.199219 129.175781 C 112.746094 126.027344 113.601562 122.960938 115.480469 120.296875 C 116.890625 118.296875 117.957031 117.625 120.3125 117.164062 C 118.691406 115.511719 115.097656 115.320312 112.75 116.921875 C 111.828125 117.550781 110.988281 118.425781 110.382812 119.367188 C 108.011719 123.0625 107.164062 127.269531 106.605469 131.542969 C 106.378906 133.285156 106.234375 135.039062 106.015625 137.125 Z M 106.015625 137.125 " fill-opacity="1" fill-rule="nonzero"/><path fill="#000000" d="M 268.207031 124.507812 C 268.925781 127.625 269.785156 130.601562 270.269531 133.636719 C 271.3125 140.195312 271.023438 146.78125 270.03125 153.320312 C 268.8125 161.367188 267.179688 169.324219 264.527344 177.042969 C 262.4375 183.121094 259.050781 188.402344 254.59375 193.019531 C 253.863281 193.773438 253.179688 194.574219 252.480469 195.34375 C 254.015625 197.402344 256.101562 198.171875 258.316406 197.113281 C 259.914062 196.347656 261.46875 195.277344 262.707031 194.011719 C 266.304688 190.351562 268.652344 185.816406 271.039062 181.617188 C 269.820312 181.652344 268.542969 181.871094 267.332031 181.671875 C 265.628906 181.394531 265.257812 180.410156 265.800781 178.792969 C 270.023438 166.191406 272.851562 153.335938 272.648438 139.960938 C 272.628906 138.660156 272.875 137.652344 274.183594 137.246094 C 275.417969 136.863281 276.4375 137.289062 277.183594 138.351562 C 277.253906 138.449219 277.347656 138.523438 277.613281 138.808594 C 277.050781 134.324219 276.492188 130.089844 274.4375 126.253906 C 273.074219 123.703125 270.667969 123.109375 268.207031 124.507812 Z M 268.207031 124.507812 " fill-opacity="1" fill-rule="nonzero"/><path fill="#000000" d="M 266.367188 191.960938 C 266.671875 192.214844 267.148438 192.683594 267.683594 193.058594 C 269.125 194.0625 270.195312 194.0625 271.550781 192.957031 C 274.898438 190.214844 277.230469 186.714844 279.148438 182.628906 C 278.414062 182.972656 277.902344 183.285156 277.347656 183.457031 C 276.390625 183.757812 275.515625 183.585938 274.804688 182.808594 C 274.152344 182.089844 274.394531 181.398438 274.707031 180.609375 C 279.804688 167.820312 282.269531 154.589844 281.332031 140.796875 C 281.222656 139.195312 282.738281 138.28125 284.242188 139.128906 C 284.945312 139.527344 285.492188 140.199219 286.085938 140.726562 C 286.296875 138.773438 285.261719 135.503906 283.925781 134.109375 C 282.390625 132.503906 280.523438 132.511719 278.585938 132.976562 C 281.605469 154.097656 278.152344 173.75 266.367188 191.960938 Z M 266.367188 191.960938 " fill-opacity="1" fill-rule="nonzero"/><path fill="#000000" d="M 261.773438 179.167969 C 259.007812 180.507812 257.664062 180.175781 256.117188 177.828125 C 252.5 185.246094 249.417969 193.097656 240.796875 196.570312 C 241.796875 197.546875 243.035156 198.042969 244.582031 197.761719 C 247.449219 197.238281 249.703125 195.628906 251.742188 193.6875 C 255.960938 189.679688 259.152344 184.929688 261.636719 179.691406 C 261.707031 179.546875 261.71875 179.378906 261.773438 179.167969 Z M 261.773438 179.167969 " fill-opacity="1" fill-rule="nonzero"/><path fill="#000000" d="M 268.933594 136.664062 C 268.332031 130.632812 267.910156 124.410156 264.386719 118.96875 C 262.242188 115.65625 257.632812 114.824219 254.414062 117.222656 C 257.246094 117.304688 258.867188 119.042969 260.113281 121.207031 C 262.230469 124.890625 262.925781 128.988281 263.398438 133.132812 C 263.515625 134.1875 263.597656 135.242188 263.6875 136.183594 C 264.628906 135.890625 265.585938 135.3125 266.496094 135.382812 C 267.335938 135.449219 268.121094 136.207031 268.933594 136.664062 Z M 268.933594 136.664062 " fill-opacity="1" fill-rule="nonzero"/><g fill="#ffffff" fill-opacity="1"><g transform="translate(29.755696, 226.95398)"><g><path d="M 31.71875 -18.28125 L 31.71875 -31.140625 L 0.75 -31.140625 L 0.75 -18.28125 L 7.34375 -18.28125 L 8.234375 -23.9375 L 11.65625 -23.9375 L 11.65625 -7.65625 L 7.875 -6.765625 L 7.875 0 L 24.6875 0 L 24.6875 -6.765625 L 20.859375 -7.65625 L 20.859375 -23.9375 L 24.28125 -23.9375 L 25.171875 -18.28125 Z M 31.71875 -18.28125 "/></g></g></g><g fill="#ffffff" fill-opacity="1"><g transform="translate(62.177333, 226.95398)"><g><path d="M 34.703125 -24.328125 L 34.703125 -31.140625 L 20.0625 -31.140625 L 20.0625 -24.328125 L 22.0625 -23.4375 L 22.0625 -18.421875 L 14.546875 -18.421875 L 14.546875 -23.4375 L 16.59375 -24.328125 L 16.59375 -31.140625 L 1.953125 -31.140625 L 1.953125 -24.328125 L 5.34375 -23.4375 L 5.34375 -7.65625 L 1.953125 -6.765625 L 1.953125 0 L 16.59375 0 L 16.59375 -6.765625 L 14.546875 -7.65625 L 14.546875 -13.078125 L 22.0625 -13.078125 L 22.0625 -7.65625 L 20.0625 -6.765625 L 20.0625 0 L 34.703125 0 L 34.703125 -6.765625 L 31.3125 -7.65625 L 31.3125 -23.4375 Z M 34.703125 -24.328125 "/></g></g></g><g fill="#ffffff" fill-opacity="1"><g transform="translate(98.912965, 226.95398)"><g><path d="M 29.40625 -20.203125 L 29.40625 -31.140625 L 1.953125 -31.140625 L 1.953125 -24.328125 L 5.34375 -23.4375 L 5.34375 -7.65625 L 1.953125 -6.765625 L 1.953125 0 L 29.453125 0 L 29.453125 -10.90625 L 22.859375 -10.90625 L 21.96875 -7.65625 L 14.5 -7.65625 L 14.5 -13.078125 L 21.96875 -13.078125 L 21.96875 -18.421875 L 14.5 -18.421875 L 14.5 -23.4375 L 21.96875 -23.4375 L 22.859375 -20.203125 Z M 29.40625 -20.203125 "/></g></g></g><g fill="#ffffff" fill-opacity="1"><g transform="translate(130.267229, 226.95398)"><g/></g></g><g fill="#ffffff" fill-opacity="1"><g transform="translate(147.345294, 226.95398)"><g><path d="M 40.75 -24.328125 L 40.75 -31.140625 L 27.140625 -31.140625 L 21.796875 -21.578125 L 16.546875 -31.140625 L 1.953125 -31.140625 L 1.953125 -24.328125 L 5.34375 -23.4375 L 5.34375 -7.65625 L 1.953125 -6.765625 L 1.953125 0 L 18.28125 0 L 18.28125 -6.765625 L 14.015625 -7.65625 L 14.015625 -18.28125 L 19.625 -8.71875 L 23.09375 -8.71875 L 28.6875 -18.28125 L 28.6875 -7.65625 L 24.421875 -6.765625 L 24.421875 0 L 40.75 0 L 40.75 -6.765625 L 37.453125 -7.65625 L 37.453125 -23.4375 Z M 40.75 -24.328125 "/></g></g></g><g fill="#ffffff" fill-opacity="1"><g transform="translate(190.1294, 226.95398)"><g><path d="M 33.28125 -24.328125 L 33.28125 -31.140625 L 18.90625 -31.140625 L 18.90625 -24.328125 L 20.90625 -23.4375 L 20.90625 -8.671875 L 19.75 -7.65625 L 14.59375 -7.65625 L 13.390625 -8.671875 L 13.390625 -23.4375 L 15.4375 -24.328125 L 15.4375 -31.140625 L 0.796875 -31.140625 L 0.796875 -24.328125 L 4.1875 -23.4375 L 4.1875 -4.84375 L 10.046875 0 L 24.0625 0 L 29.890625 -4.84375 L 29.890625 -23.4375 Z M 33.28125 -24.328125 "/></g></g></g><g fill="#ffffff" fill-opacity="1"><g transform="translate(224.241051, 226.95398)"><g><path d="M 27.484375 -26.0625 L 21.4375 -31.140625 L 7.828125 -31.140625 L 1.78125 -26.0625 L 1.78125 -17.578125 L 7.078125 -13.21875 L 17.75 -11.4375 L 18.59375 -10.671875 L 18.59375 -8.578125 L 17.484375 -7.65625 L 10.984375 -7.65625 L 10.09375 -10.90625 L 1.78125 -10.90625 L 1.78125 -5.25 L 8.09375 0 L 21.484375 0 L 27.84375 -5.25 L 27.84375 -14.140625 L 22.640625 -18.1875 L 11.921875 -19.96875 L 10.9375 -20.734375 L 10.9375 -22.546875 L 12.09375 -23.4375 L 18.28125 -23.4375 L 19.171875 -20.203125 L 27.484375 -20.203125 Z M 27.484375 -26.0625 "/></g></g></g><g fill="#ffffff" fill-opacity="1"><g transform="translate(253.905301, 226.95398)"><g><path d="M 27.765625 -26.0625 L 21.703125 -31.140625 L 8.859375 -31.140625 L 1.953125 -25.40625 L 1.953125 -5.953125 L 9.125 0 L 21.4375 0 C 22.476562 -0.863281 23.53125 -1.734375 24.59375 -2.609375 C 25.664062 -3.484375 26.722656 -4.363281 27.765625 -5.25 L 27.765625 -10.90625 L 19.4375 -10.90625 L 18.546875 -7.65625 L 12.453125 -7.65625 L 11.125 -8.71875 L 11.125 -22.421875 L 12.40625 -23.4375 L 18.546875 -23.4375 L 19.4375 -20.203125 L 27.765625 -20.203125 Z M 27.765625 -26.0625 "/></g></g></g><g fill="#ffffff" fill-opacity="1"><g transform="translate(283.702972, 226.95398)"><g><path d="M 18.328125 -24.328125 L 18.328125 -31.140625 L 1.953125 -31.140625 L 1.953125 -24.328125 L 5.34375 -23.4375 L 5.34375 -7.65625 L 1.953125 -6.765625 L 1.953125 0 L 29.40625 0 L 29.40625 -11.875 L 22.828125 -11.875 L 21.9375 -7.65625 L 14.546875 -7.65625 L 14.546875 -23.4375 Z M 18.328125 -24.328125 "/></g></g></g><g fill="#ffffff" fill-opacity="1"><g transform="translate(313.856429, 226.95398)"><g><path d="M 29.40625 -20.203125 L 29.40625 -31.140625 L 1.953125 -31.140625 L 1.953125 -24.328125 L 5.34375 -23.4375 L 5.34375 -7.65625 L 1.953125 -6.765625 L 1.953125 0 L 29.453125 0 L 29.453125 -10.90625 L 22.859375 -10.90625 L 21.96875 -7.65625 L 14.5 -7.65625 L 14.5 -13.078125 L 21.96875 -13.078125 L 21.96875 -18.421875 L 14.5 -18.421875 L 14.5 -23.4375 L 21.96875 -23.4375 L 22.859375 -20.203125 Z M 29.40625 -20.203125 "/></g></g></g><g fill="#00bf63" fill-opacity="1"><g transform="translate(139.615293, 247.923193)"><g><path d="M 5.40625 0.203125 C 4.300781 0.203125 2.984375 0.09375 1.453125 -0.125 L 1.453125 -1.734375 C 2.992188 -1.398438 4.347656 -1.234375 5.515625 -1.234375 C 6.503906 -1.234375 7.222656 -1.34375 7.671875 -1.5625 C 8.128906 -1.78125 8.359375 -2.191406 8.359375 -2.796875 L 8.359375 -4.46875 C 8.359375 -5.019531 8.195312 -5.410156 7.875 -5.640625 C 7.550781 -5.867188 6.992188 -5.984375 6.203125 -5.984375 L 4.6875 -5.984375 C 3.425781 -5.984375 2.53125 -6.234375 2 -6.734375 C 1.46875 -7.242188 1.203125 -8.03125 1.203125 -9.09375 L 1.203125 -10.125 C 1.203125 -10.832031 1.359375 -11.40625 1.671875 -11.84375 C 1.984375 -12.28125 2.503906 -12.601562 3.234375 -12.8125 C 3.972656 -13.03125 4.988281 -13.140625 6.28125 -13.140625 C 7.144531 -13.140625 8.253906 -13.066406 9.609375 -12.921875 L 9.609375 -11.46875 C 8.097656 -11.6875 6.941406 -11.796875 6.140625 -11.796875 C 4.898438 -11.796875 4.082031 -11.675781 3.6875 -11.4375 C 3.28125 -11.1875 3.078125 -10.769531 3.078125 -10.1875 L 3.078125 -8.71875 C 3.078125 -8.257812 3.238281 -7.925781 3.5625 -7.71875 C 3.882812 -7.519531 4.445312 -7.421875 5.25 -7.421875 L 6.796875 -7.421875 C 7.691406 -7.421875 8.382812 -7.3125 8.875 -7.09375 C 9.375 -6.882812 9.726562 -6.5625 9.9375 -6.125 C 10.144531 -5.695312 10.25 -5.117188 10.25 -4.390625 L 10.25 -3.453125 C 10.25 -2.535156 10.078125 -1.8125 9.734375 -1.28125 C 9.398438 -0.75 8.878906 -0.367188 8.171875 -0.140625 C 7.472656 0.0859375 6.550781 0.203125 5.40625 0.203125 Z M 5.40625 0.203125 "/></g></g></g><g fill="#00bf63" fill-opacity="1"><g transform="translate(156.343099, 247.923193)"><g><path d="M 4.859375 -11.578125 L 0.484375 -11.578125 L 0.484375 -12.9375 L 11.1875 -12.9375 L 11.1875 -11.578125 L 6.8125 -11.578125 L 6.8125 0 L 4.859375 0 Z M 4.859375 -11.578125 "/></g></g></g><g fill="#00bf63" fill-opacity="1"><g transform="translate(173.389841, 247.923193)"><g><path d="M 6.71875 0.203125 C 6.007812 0.203125 5.394531 0.15625 4.875 0.0625 C 4.351562 -0.03125 3.835938 -0.191406 3.328125 -0.421875 C 2.796875 -0.660156 2.382812 -1.023438 2.09375 -1.515625 C 1.8125 -2.003906 1.671875 -2.601562 1.671875 -3.3125 L 1.671875 -12.9375 L 3.53125 -12.9375 L 3.53125 -3.328125 C 3.53125 -2.515625 3.800781 -1.9375 4.34375 -1.59375 C 4.882812 -1.257812 5.691406 -1.09375 6.765625 -1.09375 C 7.828125 -1.09375 8.617188 -1.257812 9.140625 -1.59375 C 9.660156 -1.9375 9.921875 -2.515625 9.921875 -3.328125 L 9.921875 -12.9375 L 11.78125 -12.9375 L 11.78125 -3.3125 C 11.78125 -0.96875 10.09375 0.203125 6.71875 0.203125 Z M 6.71875 0.203125 "/></g></g></g><g fill="#00bf63" fill-opacity="1"><g transform="translate(192.250553, 247.923193)"><g><path d="M 1.671875 -12.9375 L 6.8125 -12.9375 C 10.445312 -12.9375 12.265625 -11.703125 12.265625 -9.234375 L 12.265625 -3.515625 C 12.265625 -1.171875 10.457031 0 6.84375 0 L 1.671875 0 Z M 6.703125 -1.3125 C 9.171875 -1.3125 10.40625 -2.054688 10.40625 -3.546875 L 10.40625 -9.25 C 10.40625 -9.726562 10.304688 -10.132812 10.109375 -10.46875 C 9.910156 -10.800781 9.628906 -11.046875 9.265625 -11.203125 C 8.910156 -11.347656 8.539062 -11.453125 8.15625 -11.515625 C 7.769531 -11.578125 7.316406 -11.609375 6.796875 -11.609375 L 3.609375 -11.609375 L 3.609375 -1.3125 Z M 6.703125 -1.3125 "/></g></g></g><g fill="#00bf63" fill-opacity="1"><g transform="translate(211.171057, 247.923193)"><g><path d="M 1.671875 -12.9375 L 3.609375 -12.9375 L 3.609375 0 L 1.671875 0 Z M 1.671875 -12.9375 "/></g></g></g><g fill="#00bf63" fill-opacity="1"><g transform="translate(221.839033, 247.923193)"><g><path d="M 6.734375 0.203125 C 3.117188 0.203125 1.3125 -0.96875 1.3125 -3.3125 L 1.3125 -9.4375 C 1.3125 -11.90625 3.117188 -13.140625 6.734375 -13.140625 C 10.390625 -13.140625 12.21875 -11.910156 12.21875 -9.453125 L 12.21875 -3.3125 C 12.21875 -2.0625 11.710938 -1.160156 10.703125 -0.609375 C 9.691406 -0.0664062 8.367188 0.203125 6.734375 0.203125 Z M 6.78125 -1.09375 C 9.15625 -1.09375 10.34375 -1.835938 10.34375 -3.328125 L 10.34375 -9.484375 C 10.34375 -11.078125 9.148438 -11.875 6.765625 -11.875 C 5.609375 -11.875 4.71875 -11.695312 4.09375 -11.34375 C 3.476562 -10.988281 3.171875 -10.367188 3.171875 -9.484375 L 3.171875 -3.328125 C 3.171875 -1.835938 4.375 -1.09375 6.78125 -1.09375 Z M 6.78125 -1.09375 "/></g></g></g></svg>